#!OML:ASF E:\motion texture\Top Level 1\Subject 1\Session 1\male.ASF
:FULLY-SPECIFIED
:DEGREES
540
root -18.0583 18.0254 3.35038 70.0379 -84.8736 -65.573
lowerback -4.17382 -0.939878 1.3431
upperback -5.28828 -1.38442 2.31137
thorax -3.08004 -0.759439 1.61218
lowerneck -1.68824 -2.04218 -9.00146
upperneck -24.227 -1.85377 12.6318
head -6.77766 -1.49597 5.87229
rclavicle -1.20389e-014 3.52843e-014
rhumerus 57.2461 -5.72408 -55.1633
rradius 104.589
rwrist 2.30558
rhand -30.1274 -28.2378
rfingers 7.12502
rthumb -3.44048 -58.1898
lclavicle -1.20389e-014 3.52843e-014
lhumerus 61.7762 3.91837 64.7842
lradius 74.8774
lwrist 2.82246
lhand -23.3016 37.5268
lfingers 7.12502
lthumb 3.15187 67.4833
rfemur -20.2156 2.67773 26.8486
rtibia 20.4762
rfoot -2.40929 -10.9953
rtoes 20.863
lfemur -6.01349 -2.88613 -11.5357
ltibia 45.8054
lfoot 4.53443 -9.80093
ltoes -15.1274
541
root -18.2013 18.036 3.3243 70.645 -84.6671 -66.2725
lowerback -4.13988 -0.867566 1.55414
upperback -5.30211 -1.29128 2.33056
thorax -3.1195 -0.720339 1.51629
lowerneck -1.62904 -2.05981 -9.01928
upperneck -24.1533 -1.87951 12.6149
head -6.76104 -1.50233 5.86768
rclavicle 1.04486e-014 -2.68359e-014
rhumerus 57.6518 -5.39596 -55.1768
rradius 104.19
rwrist 2.58065
rhand -30.2389 -28.5574
rfingers 7.12502
rthumb -3.54817 -58.5076
lclavicle 1.04486e-014 -2.68359e-014
lhumerus 61.8687 3.6325 64.9101
lradius 75.5085
lwrist 2.82867
lhand -23.1864 37.8812
lfingers 7.12502
lthumb 3.26313 67.836
rfemur -19.5756 2.74436 27.2728
rtibia 20.4396
rfoot -2.65588 -10.9183
rtoes 21.1217
lfemur -6.84471 -2.75903 -11.1021
ltibia 46.9603
lfoot 4.8453 -9.69473
ltoes -15.0634
542
root -18.3431 18.0466 3.29882 71.3124 -84.4699 -67.0291
lowerback -4.106 -0.790306 1.76523
upperback -5.31489 -1.19137 2.34783
thorax -3.15744 -0.677983 1.41836
lowerneck -1.56756 -2.07803 -9.03094
upperneck -24.0736 -1.90696 12.5916
head -6.74296 -1.50943 5.85958
rclavicle -2.6339e-015 -1.12313e-014
rhumerus 58.0503 -5.05362 -55.2011
rradius 103.803
rwrist 2.86636
rhand -30.3582 -28.8933
rfingers 7.12502
rthumb -3.66338 -58.8416
lclavicle -2.6339e-015 -1.12313e-014
lhumerus 61.9498 3.34595 65.0387
lradius 76.134
lwrist 2.86397
lhand -23.0617 38.2516
lfingers 7.12502
lthumb 3.38348 68.2045
rfemur -18.9249 2.81036 27.689
rtibia 20.3724
rfoot -2.91516 -10.855
rtoes 21.3354
lfemur -7.69242 -2.62303 -10.6837
ltibia 48.0605
lfoot 5.06622 -9.56722
ltoes -15.0143
543
root -18.4836 18.0572 3.27403 72.0375 -84.2837 -67.8399
lowerback -4.07233 -0.708509 1.97485
upperback -5.32838 -1.08525 2.36308
thorax -3.19551 -0.63263 1.31914
lowerneck -1.50567 -2.09454 -9.04733
upperneck -23.9797 -1.93128 12.5732
head -6.72048 -1.51465 5.85321
rclavicle 2.127e-014 -3.66758e-014
rhumerus 58.4368 -4.69251 -55.2352
rradius 103.428
rwrist 3.16484
rhand -30.4819 -29.2407
rfingers 7.12502
rthumb -3.78285 -59.1869
lclavicle 2.127e-014 -3.66758e-014
lhumerus 62.0129 3.05792 65.1707
lradius 76.7558
lwrist 2.92842
lhand -22.9209 38.6417
lfingers 7.12502
lthumb 3.51944 68.5924
rfemur -18.2655 2.87295 28.0953
rtibia 20.2785
rfoot -3.19284 -10.8026
rtoes 21.5011
lfemur -8.55318 -2.47853 -10.2839
ltibia 49.0994
lfoot 5.19717 -9.41707
ltoes -14.9879
544
root -18.6229 18.0677 3.24993 72.817 -84.1087 -68.7015
lowerback -4.04031 -0.622239 2.18222
upperback -5.33982 -0.973019 2.37587
thorax -3.22995 -0.584245 1.21853
lowerneck -1.44954 -2.1124 -9.05718
upperneck -23.8701 -1.958 12.5486
head -6.69195 -1.52066 5.84277
rclavicle 1.22998e-015 -1.18774e-014
rhumerus 58.8128 -4.31459 -55.2779
rradius 103.068
rwrist 3.473
rhand -30.6066 -29.6077
rfingers 7.12502
rthumb -3.90327 -59.5517
lclavicle 1.22998e-015 -1.18774e-014
lhumerus 62.0598 2.7692 65.3046
lradius 77.3737
lwrist 3.02924
lhand -22.7732 39.0405
lfingers 7.12502
lthumb 3.66211 68.9888
rfemur -17.5992 2.93176 28.4911
rtibia 20.1621
rfoot -3.4917 -10.7548
rtoes 21.6124
lfemur -9.4231 -2.32553 -9.90326
ltibia 50.0698
lfoot 5.24309 -9.24251
ltoes -14.9728
545
root -18.7609 18.0779 3.22654 73.6472 -83.9453 -69.6099
lowerback -4.00969 -0.531864 2.38696
upperback -5.35095 -0.855193 2.38605
thorax -3.26262 -0.5331 1.11662
lowerneck -1.39609 -2.12984 -9.06486
upperneck -23.744 -1.98416 12.5224
head -6.65776 -1.52604 5.83052
rclavicle -1.65861e-015 -9.0447e-015
rhumerus 59.1724 -3.91588 -55.3278
rradius 102.724
rwrist 3.79261
rhand -30.7352 -29.9824
rfingers 7.12502
rthumb -4.02739 -59.9241
lclavicle -1.65861e-015 -9.0447e-015
lhumerus 62.0832 2.47886 65.4392
lradius 77.9915
lwrist 3.16838
lhand -22.6172 39.45
lfingers 7.12502
lthumb 3.81276 69.3956
rfemur -16.9271 2.98837 28.8747
rtibia 20.0249
rfoot -3.80656 -10.7111
rtoes 21.6743
lfemur -10.2981 -2.1648 -9.54312
ltibia 50.9648
lfoot 5.20604 -9.04386
ltoes -14.9703
